<mxfile host="app.diagrams.net" modified="2022-11-16T00:54:15.554Z" agent="5.0 (Macintosh; Intel Mac OS X 10_15_7) AppleWebKit/605.1.15 (KHTML, like Gecko) Version/16.1 Safari/605.1.15" etag="_VgPuE62R3BSCrXP2DnK" version="20.5.3" type="github">
  <diagram id="2eSIhio7ax-TwMTem3YI" name="PÃ¡gina-1">
    <mxGraphModel dx="830" dy="1704" grid="1" gridSize="10" guides="1" tooltips="1" connect="1" arrows="1" fold="1" page="1" pageScale="1" pageWidth="827" pageHeight="1169" math="0" shadow="0">
      <root>
        <mxCell id="0" />
        <mxCell id="1" parent="0" />
        <mxCell id="80YEqTwlPCmAUWT3thk7-24" value="" style="verticalLabelPosition=bottom;verticalAlign=top;html=1;shape=mxgraph.basic.patternFillRect;fillStyle=diag;step=5;fillStrokeWidth=0.2;fillStrokeColor=#dddddd;strokeColor=default;strokeWidth=1;fillColor=none;" vertex="1" parent="1">
          <mxGeometry x="120" y="-79" width="640" height="719" as="geometry" />
        </mxCell>
        <mxCell id="80YEqTwlPCmAUWT3thk7-1" value="AWS Cloud" style="points=[[0,0],[0.25,0],[0.5,0],[0.75,0],[1,0],[1,0.25],[1,0.5],[1,0.75],[1,1],[0.75,1],[0.5,1],[0.25,1],[0,1],[0,0.75],[0,0.5],[0,0.25]];outlineConnect=0;gradientColor=none;html=1;whiteSpace=wrap;fontSize=12;fontStyle=0;container=1;pointerEvents=0;collapsible=0;recursiveResize=0;shape=mxgraph.aws4.group;grIcon=mxgraph.aws4.group_aws_cloud_alt;strokeColor=#232F3E;fillColor=none;verticalAlign=top;align=left;spacingLeft=30;fontColor=#232F3E;dashed=0;" vertex="1" parent="1">
          <mxGeometry x="160" y="80" width="560" height="520" as="geometry" />
        </mxCell>
        <mxCell id="80YEqTwlPCmAUWT3thk7-2" value="VPC" style="points=[[0,0],[0.25,0],[0.5,0],[0.75,0],[1,0],[1,0.25],[1,0.5],[1,0.75],[1,1],[0.75,1],[0.5,1],[0.25,1],[0,1],[0,0.75],[0,0.5],[0,0.25]];outlineConnect=0;gradientColor=none;html=1;whiteSpace=wrap;fontSize=12;fontStyle=0;container=1;pointerEvents=0;collapsible=0;recursiveResize=0;shape=mxgraph.aws4.group;grIcon=mxgraph.aws4.group_vpc;strokeColor=#248814;fillColor=none;verticalAlign=top;align=left;spacingLeft=30;fontColor=#AAB7B8;dashed=0;" vertex="1" parent="80YEqTwlPCmAUWT3thk7-1">
          <mxGeometry x="40" y="160" width="400" height="320" as="geometry" />
        </mxCell>
        <mxCell id="80YEqTwlPCmAUWT3thk7-14" style="edgeStyle=orthogonalEdgeStyle;rounded=0;orthogonalLoop=1;jettySize=auto;html=1;" edge="1" parent="80YEqTwlPCmAUWT3thk7-2" source="80YEqTwlPCmAUWT3thk7-7" target="80YEqTwlPCmAUWT3thk7-8">
          <mxGeometry relative="1" as="geometry" />
        </mxCell>
        <mxCell id="80YEqTwlPCmAUWT3thk7-7" value="" style="sketch=0;points=[[0,0,0],[0.25,0,0],[0.5,0,0],[0.75,0,0],[1,0,0],[0,1,0],[0.25,1,0],[0.5,1,0],[0.75,1,0],[1,1,0],[0,0.25,0],[0,0.5,0],[0,0.75,0],[1,0.25,0],[1,0.5,0],[1,0.75,0]];outlineConnect=0;fontColor=#232F3E;gradientColor=#F78E04;gradientDirection=north;fillColor=#D05C17;strokeColor=#ffffff;dashed=0;verticalLabelPosition=bottom;verticalAlign=top;align=center;html=1;fontSize=12;fontStyle=0;aspect=fixed;shape=mxgraph.aws4.resourceIcon;resIcon=mxgraph.aws4.lambda;" vertex="1" parent="80YEqTwlPCmAUWT3thk7-2">
          <mxGeometry x="280" y="40" width="78" height="78" as="geometry" />
        </mxCell>
        <mxCell id="80YEqTwlPCmAUWT3thk7-16" style="edgeStyle=orthogonalEdgeStyle;rounded=0;orthogonalLoop=1;jettySize=auto;html=1;entryX=0.5;entryY=1;entryDx=0;entryDy=0;entryPerimeter=0;" edge="1" parent="80YEqTwlPCmAUWT3thk7-2" source="80YEqTwlPCmAUWT3thk7-8" target="80YEqTwlPCmAUWT3thk7-7">
          <mxGeometry relative="1" as="geometry" />
        </mxCell>
        <mxCell id="80YEqTwlPCmAUWT3thk7-19" style="edgeStyle=orthogonalEdgeStyle;rounded=0;orthogonalLoop=1;jettySize=auto;html=1;exitX=0.5;exitY=1;exitDx=0;exitDy=0;exitPerimeter=0;" edge="1" parent="80YEqTwlPCmAUWT3thk7-2" source="80YEqTwlPCmAUWT3thk7-8" target="80YEqTwlPCmAUWT3thk7-9">
          <mxGeometry relative="1" as="geometry" />
        </mxCell>
        <mxCell id="80YEqTwlPCmAUWT3thk7-8" value="" style="sketch=0;points=[[0,0,0],[0.25,0,0],[0.5,0,0],[0.75,0,0],[1,0,0],[0,1,0],[0.25,1,0],[0.5,1,0],[0.75,1,0],[1,1,0],[0,0.25,0],[0,0.5,0],[0,0.75,0],[1,0.25,0],[1,0.5,0],[1,0.75,0]];outlineConnect=0;fontColor=#232F3E;gradientColor=#945DF2;gradientDirection=north;fillColor=#5A30B5;strokeColor=#ffffff;dashed=0;verticalLabelPosition=bottom;verticalAlign=top;align=center;html=1;fontSize=12;fontStyle=0;aspect=fixed;shape=mxgraph.aws4.resourceIcon;resIcon=mxgraph.aws4.managed_streaming_for_kafka;" vertex="1" parent="80YEqTwlPCmAUWT3thk7-2">
          <mxGeometry x="160" y="122" width="78" height="78" as="geometry" />
        </mxCell>
        <mxCell id="80YEqTwlPCmAUWT3thk7-18" style="edgeStyle=orthogonalEdgeStyle;rounded=0;orthogonalLoop=1;jettySize=auto;html=1;exitX=0.5;exitY=0;exitDx=0;exitDy=0;exitPerimeter=0;" edge="1" parent="80YEqTwlPCmAUWT3thk7-2" source="80YEqTwlPCmAUWT3thk7-9" target="80YEqTwlPCmAUWT3thk7-8">
          <mxGeometry relative="1" as="geometry" />
        </mxCell>
        <mxCell id="80YEqTwlPCmAUWT3thk7-9" value="" style="sketch=0;points=[[0,0,0],[0.25,0,0],[0.5,0,0],[0.75,0,0],[1,0,0],[0,1,0],[0.25,1,0],[0.5,1,0],[0.75,1,0],[1,1,0],[0,0.25,0],[0,0.5,0],[0,0.75,0],[1,0.25,0],[1,0.5,0],[1,0.75,0]];outlineConnect=0;fontColor=#232F3E;gradientColor=#4D72F3;gradientDirection=north;fillColor=#3334B9;strokeColor=#ffffff;dashed=0;verticalLabelPosition=bottom;verticalAlign=top;align=center;html=1;fontSize=12;fontStyle=0;aspect=fixed;shape=mxgraph.aws4.resourceIcon;resIcon=mxgraph.aws4.documentdb_with_mongodb_compatibility;" vertex="1" parent="80YEqTwlPCmAUWT3thk7-2">
          <mxGeometry x="40" y="200" width="78" height="78" as="geometry" />
        </mxCell>
        <mxCell id="80YEqTwlPCmAUWT3thk7-22" style="edgeStyle=orthogonalEdgeStyle;rounded=0;orthogonalLoop=1;jettySize=auto;html=1;entryX=1;entryY=0.5;entryDx=0;entryDy=0;entryPerimeter=0;exitX=0.5;exitY=1;exitDx=0;exitDy=0;exitPerimeter=0;" edge="1" parent="80YEqTwlPCmAUWT3thk7-1" source="80YEqTwlPCmAUWT3thk7-4" target="80YEqTwlPCmAUWT3thk7-7">
          <mxGeometry relative="1" as="geometry" />
        </mxCell>
        <mxCell id="80YEqTwlPCmAUWT3thk7-4" value="" style="sketch=0;points=[[0,0,0],[0.25,0,0],[0.5,0,0],[0.75,0,0],[1,0,0],[0,1,0],[0.25,1,0],[0.5,1,0],[0.75,1,0],[1,1,0],[0,0.25,0],[0,0.5,0],[0,0.75,0],[1,0.25,0],[1,0.5,0],[1,0.75,0]];outlineConnect=0;fontColor=#232F3E;gradientColor=#945DF2;gradientDirection=north;fillColor=#5A30B5;strokeColor=#ffffff;dashed=0;verticalLabelPosition=bottom;verticalAlign=top;align=center;html=1;fontSize=12;fontStyle=0;aspect=fixed;shape=mxgraph.aws4.resourceIcon;resIcon=mxgraph.aws4.api_gateway;" vertex="1" parent="80YEqTwlPCmAUWT3thk7-1">
          <mxGeometry x="440" y="40" width="78" height="78" as="geometry" />
        </mxCell>
        <mxCell id="80YEqTwlPCmAUWT3thk7-21" style="edgeStyle=orthogonalEdgeStyle;rounded=0;orthogonalLoop=1;jettySize=auto;html=1;entryX=0;entryY=0.5;entryDx=0;entryDy=0;entryPerimeter=0;exitX=0.5;exitY=0;exitDx=0;exitDy=0;exitPerimeter=0;" edge="1" parent="80YEqTwlPCmAUWT3thk7-1" source="80YEqTwlPCmAUWT3thk7-7" target="80YEqTwlPCmAUWT3thk7-4">
          <mxGeometry relative="1" as="geometry" />
        </mxCell>
        <mxCell id="80YEqTwlPCmAUWT3thk7-20" value="users" style="sketch=0;outlineConnect=0;gradientColor=none;fontColor=#545B64;strokeColor=none;fillColor=#879196;dashed=0;verticalLabelPosition=bottom;verticalAlign=top;align=center;html=1;fontSize=20;fontStyle=0;aspect=fixed;shape=mxgraph.aws4.illustration_users;pointerEvents=1;strokeWidth=1;" vertex="1" parent="1">
          <mxGeometry x="589" y="-60" width="100" height="100" as="geometry" />
        </mxCell>
        <mxCell id="80YEqTwlPCmAUWT3thk7-23" style="edgeStyle=orthogonalEdgeStyle;rounded=0;orthogonalLoop=1;jettySize=auto;html=1;startArrow=block;" edge="1" parent="1" source="80YEqTwlPCmAUWT3thk7-4" target="80YEqTwlPCmAUWT3thk7-20">
          <mxGeometry relative="1" as="geometry" />
        </mxCell>
      </root>
    </mxGraphModel>
  </diagram>
</mxfile>
